<?xml version="1.0" standalone="no"?><!DOCTYPE svg PUBLIC "-//W3C//DTD SVG 1.1//EN" "http://www.w3.org/Graphics/SVG/1.1/DTD/svg11.dtd"><svg t="1583207729051" class="icon" viewBox="0 0 1024 1024" version="1.1" xmlns="http://www.w3.org/2000/svg" p-id="3690" xmlns:xlink="http://www.w3.org/1999/xlink" width="44" height="44"><defs><style type="text/css"></style></defs><path d="M600.71472601 491.63155401L961.65327399 491.63155401C995.469587 491.63155401 1022.88304 464.368269 1022.88304 430.737877L1022.88304 63.106145C1022.88304 29.480045 995.475307 2.212469 961.65327399 2.212469L600.71472601 2.212469C566.899844 2.212469 539.497833 29.480045 539.497833 63.106145L539.497833 430.737877C539.497833 464.368269 566.899844 491.63155401 600.71472601 491.63155401L600.71472601 491.63155401ZM582.22838 63.106145C582.22838 53.066369 590.519061 44.89868201 600.71472601 44.89868201L961.65327399 44.89868201C971.843217 44.89868201 980.156783 53.072089 980.156783 63.106145L980.156783 430.737877C980.156783 440.776224 971.843217 448.949632 961.65327399 448.949632L600.71472601 448.949632C590.519061 448.949632 582.22838 440.776224 582.22838 430.737877L582.22838 63.106145 582.22838 63.106145Z" fill="#ff96ad" p-id="3691"></path><path d="M600.71472601 1024L961.65327399 1024C995.469587 1024 1022.88304 996.720983 1022.88304 963.083441L1022.88304 595.468873C1022.88304 561.83704999 995.475307 534.56947399 961.65327399 534.56947399L600.71472601 534.56947399C566.899844 534.56947399 539.497833 561.83704999 539.497833 595.468873L539.497833 963.083441C539.497833 996.720983 566.899844 1024 600.71472601 1024L600.71472601 1024Z" fill="#ff96ad" p-id="3692"></path><path d="M61.218324 1024L422.16831399 1024C455.983196 1024 483.385207 996.720983 483.385207 963.083441L483.385207 595.468873C483.385207 561.83704999 455.983196 534.56947399 422.16831399 534.56947399L61.218324 534.56947399C27.419173 534.56947399 0 561.83704999 0 595.468873L0 963.083441C0 996.720983 27.419173 1024 61.218324 1024L61.218324 1024ZM42.73197801 595.468873C42.73197801 585.424804 51.0341 577.251396 61.218324 577.251396L422.16831399 577.251396C432.362547 577.251396 440.653229 585.424804 440.653229 595.468873L440.653229 963.083441C440.653229 973.14467001 432.362547 981.31235801 422.16831399 981.31235801L61.218324 981.31235801C51.039821 981.31235801 42.73197801 973.14467001 42.73197801 963.083441L42.73197801 595.468873 42.73197801 595.468873Z" fill="#ff96ad" p-id="3693"></path><path d="M61.218324 490.54176599L422.16831399 490.54176599C455.983196 490.54176599 483.385207 463.274191 483.385207 429.636649L483.385207 62.01635801C483.385207 28.384536 455.983196 1.116961 422.16831399 1.116961L61.218324 1.116961C27.419173 1.116961 0 28.384536 0 62.01635801L0 429.642368C0 463.274191 27.419173 490.54176599 61.218324 490.54176599L61.218324 490.54176599ZM42.73197801 62.01635801C42.73197801 51.972291 51.0341 43.804603 61.218324 43.804603L422.16831399 43.804603C432.362547 43.804603 440.653229 51.972291 440.653229 62.01635801L440.653229 429.642368C440.653229 439.686436 432.362547 447.854123 422.16831399 447.854123L61.218324 447.854123C51.039821 447.854123 42.73197801 439.686436 42.73197801 429.642368L42.73197801 62.01635801 42.73197801 62.01635801Z" fill="#ff96ad" p-id="3694"></path></svg>