<?xml version="1.0" standalone="no"?><!DOCTYPE svg PUBLIC "-//W3C//DTD SVG 1.1//EN" "http://www.w3.org/Graphics/SVG/1.1/DTD/svg11.dtd"><svg t="1583207721882" class="icon" viewBox="0 0 1024 1024" version="1.1" xmlns="http://www.w3.org/2000/svg" p-id="3447" xmlns:xlink="http://www.w3.org/1999/xlink" width="44" height="44"><defs><style type="text/css"></style></defs><path d="M1004.8 358.4l-96-128a96 96 0 0 0-12.8-13.44V64a64 64 0 0 0-64-64H192a64 64 0 0 0-64 64v152.96a96 96 0 0 0-12.8 13.44l-96 128A96 96 0 0 0 0 416v32a96 96 0 0 0 96 96v416a64 64 0 0 0 64 64h704a64 64 0 0 0 64-64V544a96 96 0 0 0 96-96v-32a96 96 0 0 0-19.2-57.6zM832 64v128H192V64zM326.08 480H192l128-224h70.08z m96-224h73.92v224h-136.64z m105.92 0h72.64l64 224H528z m105.92 0H704l128 224h-134.08zM64 448v-32a32 32 0 0 1 6.4-19.2l96-128A32 32 0 0 1 192 256h91.2l-128 224H96a32 32 0 0 1-32-32z m576 512h-240V640H640z m224 0h-192V640a32 32 0 0 0-32-32h-240a32 32 0 0 0-32 32v320H160V544h704z m96-512a32 32 0 0 1-32 32h-59.2l-128-224H832a32 32 0 0 1 25.6 12.8l96 128a32 32 0 0 1 6.4 19.2z" fill="#ff96ad" p-id="3448"></path></svg>