<?xml version="1.0" standalone="no"?><!DOCTYPE svg PUBLIC "-//W3C//DTD SVG 1.1//EN" "http://www.w3.org/Graphics/SVG/1.1/DTD/svg11.dtd"><svg t="1583207681584" class="icon" viewBox="0 0 1024 1024" version="1.1" xmlns="http://www.w3.org/2000/svg" p-id="2720" width="44" height="44" xmlns:xlink="http://www.w3.org/1999/xlink"><defs><style type="text/css"></style></defs><path d="M379.562667 486.843733c-3.208533 0-6.417067 0.136533-9.693867 0.4096-32.426667 2.798933-58.4704 16.384-75.3664 39.253334-19.729067 26.7264-26.282667 64.2048-17.885867 102.843733 16.110933 74.205867 133.563733 206.916267 235.451734 247.876267 102.1952-40.106667 220.706133-171.895467 237.397333-245.998934 8.669867-38.536533 2.4576-76.0832-17.066667-102.980266-16.725333-23.005867-42.666667-36.795733-75.0592-39.8336a105.540267 105.540267 0 0 0-61.269333 12.561066c-74.171733 39.389867-91.136 39.3216-165.000533-0.682666a106.120533 106.120533 0 0 0-51.541334-13.448534z m132.266666 444.791467l-8.430933-2.9696c-112.776533-39.936-255.0784-188.2112-276.821333-288.4608-11.502933-53.009067-1.7408-105.540267 26.7264-144.110933 25.873067-35.089067 64.682667-55.773867 112.162133-59.835734a157.730133 157.730133 0 0 1 89.975467 19.0464c58.1632 31.470933 58.1632 31.505067 116.599466 0.443734a157.969067 157.969067 0 0 1 90.112-18.3296c47.445333 4.471467 86.084267 25.463467 111.684267 60.757333 28.16 38.8096 37.4784 91.409067 25.6 144.315733-22.596267 100.113067-166.058667 247.227733-279.1424 286.242134l-8.465067 2.901333zM510.122667 136.533333a113.8688 113.8688 0 0 0-113.7664 113.732267 113.8688 113.8688 0 0 0 113.7664 113.7664 113.8688 113.8688 0 0 0 113.732266-113.732267A113.8688 113.8688 0 0 0 510.122667 136.533333z m0 278.698667a165.137067 165.137067 0 0 1-164.9664-164.932267A165.137067 165.137067 0 0 1 510.122667 85.333333a165.102933 165.102933 0 0 1 164.932266 164.932267 165.137067 165.137067 0 0 1-164.932266 164.9664z" fill="#ff96ad" p-id="2721"></path></svg>